<?xml version="1.0" standalone="no"?>
<!DOCTYPE svg PUBLIC "-//W3C//DTD SVG 20010904//EN"
 "http://www.w3.org/TR/2001/REC-SVG-20010904/DTD/svg10.dtd">
<svg version="1.0" xmlns="http://www.w3.org/2000/svg"
 width="512.000000pt" height="512.000000pt" viewBox="0 0 512.000000 512.000000"
 preserveAspectRatio="xMidYMid meet">
<metadata>
Created by potrace 1.14, written by Peter Selinger 2001-2017
</metadata>
<g transform="translate(0.000000,512.000000) scale(0.100000,-0.100000)"
fill="#000000" stroke="none">
<path d="M2517 5084 c-1 -1 -52 -4 -114 -8 -329 -18 -647 -102 -958 -256 -302
-149 -595 -375 -796 -615 -19 -22 -36 -42 -39 -45 -55 -55 -205 -281 -279
-421 -63 -119 -145 -308 -156 -360 -5 -22 -18 -35 -55 -54 -86 -44 -128 -119
-114 -207 8 -46 40 -108 56 -108 9 0 5 -78 -7 -154 -14 -83 -20 -353 -11 -486
36 -503 246 -1022 573 -1417 437 -526 1077 -859 1747 -908 90 -7 323 -7 386
-1 168 17 243 27 330 47 25 6 55 13 66 15 123 24 337 101 509 183 292 140 528
315 760 562 347 370 589 896 649 1412 4 26 8 68 11 93 12 95 6 380 -9 494 -19
142 -19 147 3 169 40 40 57 120 40 183 -12 46 -88 128 -118 128 -26 0 -34 13
-67 110 -40 117 -175 384 -256 505 -154 230 -377 470 -578 621 -337 254 -779
441 -1160 490 -30 3 -66 8 -80 10 -46 6 -329 21 -333 18z m293 -409 c19 -2 54
-7 77 -10 24 -4 45 -6 48 -6 2 0 19 -5 37 -10 18 -5 47 -12 63 -15 49 -8 233
-64 299 -91 220 -88 496 -258 631 -387 18 -17 50 -47 71 -67 222 -206 417
-506 529 -816 21 -56 21 -63 7 -64 -10 0 -24 -2 -32 -4 -149 -34 -211 -38
-215 -15 -17 99 -95 134 -325 147 -146 9 -730 9 -815 1 -116 -12 -216 -35
-264 -62 -21 -12 -34 -11 -90 5 -96 28 -150 34 -296 34 -105 0 -148 -5 -222
-24 -88 -24 -94 -24 -130 -8 -115 51 -234 62 -653 61 -590 -1 -700 -21 -731
-136 l-10 -39 -47 5 c-92 11 -202 39 -202 51 0 18 81 218 118 291 98 194 277
435 427 575 22 20 56 52 75 69 97 90 313 236 458 309 123 62 359 145 482 170
123 24 153 29 245 37 39 4 72 8 74 10 5 4 349 -5 391 -11z m-102 -1723 l52
-15 1 -46 c4 -295 145 -535 374 -639 106 -49 179 -61 335 -58 202 4 343 44
487 139 145 95 232 202 307 380 22 50 29 57 53 58 15 0 35 2 44 4 8 1 42 6 75
10 32 3 77 10 99 15 22 5 52 11 68 14 15 2 36 8 47 11 11 4 20 3 21 -2 0 -4 3
-17 5 -28 10 -37 12 -379 4 -440 -5 -33 -11 -78 -14 -100 -53 -436 -303 -921
-635 -1229 -24 -23 -54 -51 -67 -63 -50 -49 -212 -167 -315 -229 -204 -123
-445 -217 -660 -259 -158 -31 -207 -36 -394 -40 -174 -3 -304 6 -409 30 -12 3
-33 7 -48 9 -126 20 -357 98 -498 167 -158 77 -377 222 -480 318 -96 90 -119
113 -170 167 -68 73 -206 255 -228 300 -9 19 -19 34 -24 34 -4 0 -8 4 -8 9 0
5 -18 40 -40 77 -57 98 -155 334 -175 424 -2 8 -12 49 -23 90 -42 159 -57 296
-56 505 2 192 4 239 13 253 5 8 26 7 71 -4 36 -8 98 -20 140 -26 103 -14 111
-15 147 -17 26 -1 32 -6 38 -31 4 -16 11 -32 16 -35 5 -4 9 -14 9 -24 0 -9 23
-55 52 -101 121 -198 318 -327 568 -374 119 -23 312 -17 408 13 173 53 300
159 380 318 36 70 71 209 78 306 3 51 9 95 13 99 26 28 252 35 339 10z"/>
<path d="M3881 1995 c-53 -73 -192 -207 -267 -257 -119 -78 -234 -123 -389
-152 -102 -19 -258 -28 -507 -28 -239 0 -304 4 -462 28 -298 46 -356 49 -401
20 -38 -25 -48 -53 -42 -117 13 -159 138 -232 452 -268 81 -9 515 -8 570 2 17
3 50 8 75 11 72 8 179 33 270 62 309 97 542 300 675 589 37 79 67 155 61 155
-1 0 -17 -20 -35 -45z"/>
</g>
</svg>
