<?xml version="1.0" standalone="no"?>
<!DOCTYPE svg PUBLIC "-//W3C//DTD SVG 20010904//EN"
 "http://www.w3.org/TR/2001/REC-SVG-20010904/DTD/svg10.dtd">
<svg version="1.0" xmlns="http://www.w3.org/2000/svg"
 width="152.000000pt" height="152.000000pt" viewBox="0 0 152.000000 152.000000"
 preserveAspectRatio="xMidYMid meet">
<metadata>
Created by potrace 1.14, written by Peter Selinger 2001-2017
</metadata>
<g transform="translate(0.000000,152.000000) scale(0.100000,-0.100000)"
fill="#000000" stroke="none">
<path d="M658 1455 c-2 -1 -39 -5 -83 -9 -144 -12 -282 -57 -355 -115 -24 -19
-25 -24 -25 -128 1 -256 25 -519 55 -617 75 -241 241 -428 449 -507 54 -21 58
-21 106 -4 120 41 241 131 323 243 109 148 166 312 177 507 4 72 9 148 10 170
22 340 27 322 -100 384 -57 27 -147 52 -245 66 -43 7 -306 15 -312 10z"/>
</g>
</svg>
